<?xml version="1.0" standalone="no"?><!DOCTYPE svg PUBLIC "-//W3C//DTD SVG 1.1//EN" "http://www.w3.org/Graphics/SVG/1.1/DTD/svg11.dtd"><svg class="icon" width="200px" height="200.00px" viewBox="0 0 1024 1024" version="1.1" xmlns="http://www.w3.org/2000/svg"><path fill="#ffffff" d="M113.777 819.198 113.777 204.8c0-50.267 40.75-91.022 91.02-91.022l614.376 0c50.29 0 91.045 40.755 91.045 91.022l0 614.398c0 50.27-40.755 91.02-91.045 91.02L204.797 910.218C154.527 910.218 113.777 869.468 113.777 819.198zM796.438 841.953c25.125 0 45.51-20.385 45.51-45.51L841.948 227.554c0-25.122-20.385-45.51-45.505-45.51L227.552 182.044c-25.125 0-45.535 20.387-45.535 45.51l0 568.889c0 25.125 20.39 45.51 45.535 45.51L796.438 841.953zM623.043 603.269l57.115-57.14L344.357 546.129l55.5 55.505c13.31 13.335 13.335 34.93 0 48.265-13.335 13.33-34.95 13.33-48.29 0l-105.765-105.77c-3.415-1.615-6.78-3.525-9.625-6.37-7.08-7.1-10.1-16.475-9.67-25.76-0.46-9.262 2.59-18.66 9.69-25.76 2.85-2.842 6.15-4.8 9.58-6.348l105.79-105.79c13.34-13.335 34.955-13.335 48.29 0 13.31 13.332 13.335 34.927 0 48.262l-55.5 55.502 335.802 0-57.115-57.117c-13.355-13.335-13.335-34.952 0-48.287s34.93-13.335 48.265 0l115.37 115.395c13.335 13.332 13.36 34.927 0 48.262l-115.37 115.395c-13.335 13.335-34.95 13.335-48.265 0C609.708 638.198 609.708 616.583 623.043 603.269z"  /></svg>