<?xml version="1.0" standalone="no"?><!DOCTYPE svg PUBLIC "-//W3C//DTD SVG 1.1//EN" "http://www.w3.org/Graphics/SVG/1.1/DTD/svg11.dtd"><svg class="icon" width="200px" height="200.00px" viewBox="0 0 1024 1024" version="1.1" xmlns="http://www.w3.org/2000/svg"><path fill="#ffffff" d="M932.736 805.184h-29.568c17.728-24 28.608-53.44 28.608-85.568V305.856a145.024 145.024 0 0 0-144.768-144.896h-547.84a144.96 144.96 0 0 0-144.768 144.896v413.76c0 32.128 10.88 61.568 28.672 85.568h-29.44a31.744 31.744 0 1 0 0 63.488h839.104a31.744 31.744 0 1 0 0-63.488zM158.464 305.856c0-44.608 36.224-80.896 80.768-80.896h547.84c44.48 0 80.768 36.288 80.768 80.896v413.76c0 44.48-36.224 80.704-80.768 80.704H447.744c0.192-1.408 0.832-2.688 0.832-4.096v-0.768a32.064 32.064 0 0 0-32-31.936H287.68c-17.6 0-32 14.4-32 31.936v0.768c0 1.408 0.64 2.688 0.832 4.096h-17.28a80.768 80.768 0 0 1-80.768-80.704V305.856z" /></svg>