<?xml version="1.0" standalone="no"?><!DOCTYPE svg PUBLIC "-//W3C//DTD SVG 1.1//EN" "http://www.w3.org/Graphics/SVG/1.1/DTD/svg11.dtd"><svg class="icon" width="32px" height="32.00px" viewBox="0 0 1024 1024" version="1.1" xmlns="http://www.w3.org/2000/svg"><path fill="#ffffff" d="M732.736 741.184c2.112 17.984 2.88 15.488-13.888 65.6a241.28 241.28 0 0 0-8.384 29.952c-9.6 48.768 31.616 66.432 242.112 24.64a40.768 40.768 0 0 1 15.872 80c-257.984 51.2-362.816 6.208-337.984-120.32 1.792-9.344 4.16-18.304 7.488-28.864l3.136-9.792-2.816 8.576-1.344 0.64c-57.344 26.048-162.944 85.12-340.864 190.976l-20.864 12.416a40.768 40.768 0 0 1-41.728-70.016c152.896-91.136 255.36-149.952 323.968-185.088L576 730.432a515.84 515.84 0 0 1 68.544-29.376c44.352-14.08 82.624-5.76 88.128 40.128zM589.376 149.76l151.488 151.424a40.768 40.768 0 0 1 0 57.6l-459.008 459.072a40.768 40.768 0 0 1-22.144 11.392l-181.696 30.208a40.768 40.768 0 0 1-46.848-46.848l30.144-181.696a40.768 40.768 0 0 1 11.392-22.144L531.84 149.76a40.768 40.768 0 0 1 57.6 0z m-28.8 86.4l-420.928 420.928-18.752 112.64 112.64-18.816 420.928-420.928-93.888-93.888zM700.288 38.72l151.424 151.488a40.768 40.768 0 0 1-57.6 57.6L642.56 96.512a40.768 40.768 0 0 1 57.6-57.6z" /></svg>