<?xml version="1.0" standalone="no"?><!DOCTYPE svg PUBLIC "-//W3C//DTD SVG 1.1//EN" "http://www.w3.org/Graphics/SVG/1.1/DTD/svg11.dtd"><svg class="icon" width="32px" height="32.00px" viewBox="0 0 1024 1024" version="1.1" xmlns="http://www.w3.org/2000/svg"><path fill="#ffffff" d="M554.3 850.7L981 424c12.5-12.5 12.5-32.8 0-45.3L636.7 34.6c-12.5-12.5-32.8-12.5-45.3 0L90.5 535.5c-50 50-50 131 0 181l272.1 270.3c24 23.8 56.4 37.2 90.2 37.2H864c17.7 0 32-14.3 32-32s-14.3-32-32-32H599.5c-57 0-85.6-68.9-45.2-109.3z m71.1-736.9l276.4 276.4c6.2 6.2 6.2 16.4 0 22.6L607.9 706.6l-299-299 293.8-293.9c6.3-6.2 16.4-6.2 22.7 0.1zM135.8 580.7l127.9-127.9 299 299-127.9 127.9c-25 25-65.5 25-90.5 0L135.8 671.3c-25-25-25-65.6 0-90.6z" /></svg>